<!DOCTYPE svg PUBLIC "-//W3C//DTD SVG 1.1//EN" "http://www.w3.org/Graphics/SVG/1.1/DTD/svg11.dtd">

<!-- Uploaded to: SVG Repo, www.svgrepo.com, Transformed by: SVG Repo Mixer Tools -->
<svg version="1.1" id="_x32_" xmlns="http://www.w3.org/2000/svg" xmlns:xlink="http://www.w3.org/1999/xlink" viewBox="0 0 512 512" xml:space="preserve" width="800px" height="800px" fill="#023714">

<g id="SVGRepo_bgCarrier" stroke-width="0"/>

<g id="SVGRepo_tracerCarrier" stroke-linecap="round" stroke-linejoin="round"/>

<g id="SVGRepo_iconCarrier"> <style type="text/css"> .st0{fill:#023714;} </style> <g> <rect x="102.583" y="394.18" class="st0" width="117.236" height="21.82"/> <rect x="102.583" y="305.684" class="st0" width="160.305" height="21.82"/> <rect x="102.583" y="217.205" class="st0" width="228.367" height="21.82"/> <rect x="223.312" y="128.726" class="st0" width="107.638" height="21.82"/> <path class="st0" d="M392.765,465.44c0,11.228-9.135,20.38-20.375,20.38H61.141c-11.241,0-20.376-9.151-20.376-20.38V175.998 H165.32c13.773,0,24.976-11.211,24.976-24.988V26.181h182.093c11.24,0,20.375,9.135,20.375,20.364v147.07l26.185-26.18V46.544 C418.949,20.885,398.06,0,372.389,0H183.532c-13.574,0-26.577,5.379-36.164,14.968L29.565,132.78 c-9.598,9.591-14.981,22.606-14.981,36.168V465.44c0,25.675,20.89,46.56,46.557,46.56h311.249c25.671,0,46.56-20.885,46.56-46.56 V340.23l-26.185,26.181V465.44z M167.021,32.345v104.656c0,11.319-4.41,15.721-15.726,15.721H46.639L167.021,32.345z"/> <path class="st0" d="M493.792,206.746l-27.761-27.761c-4.828-4.832-12.66-4.832-17.492,0l-17.998,17.998l45.258,45.253 l17.993-17.997C498.624,219.406,498.624,211.578,493.792,206.746z"/> <polygon class="st0" points="262.897,364.632 247.469,425.316 308.15,409.884 "/> <path class="st0" d="M272.152,355.372l45.257,45.254l150.161-150.157l-45.257-45.262L272.152,355.372z M439.801,243.27 L308.973,374.098l-10.285-10.294l130.827-130.828L439.801,243.27z"/> </g> </g>

</svg>