<svg id="Camada_2" data-name="Camada 2" xmlns="http://www.w3.org/2000/svg" viewBox="0 0 768 613"><path d="M777.47,680.68c-43.12-44.75-55.41-115.17-34.16-173.56a181.59,181.59,0,0,1,43.36-67.33C825.16,402.05,880.87,383,934.54,388S1039,421.77,1072,464.43c13.4,17.35,23,38.43,26.54,60.07s.73,49.9-13,67c-15.36,19.14-41.29,30.32-65,24-30-8-44.86-33.42-49.83-57.45-2.5-12-1.54-24.63-4.18-36.66-5.06-23.07-25-40.72-48-45.89s-47,4-62.48,21.11c-26.86,34.8-12.29,92.09,12.43,124.23,25.1,32.65,60.13,60.23,99.55,72.16C918.43,753.63,826.65,731.72,777.47,680.68Z" transform="translate(-588 -239)" style="fill:none;stroke:#023714;stroke-miterlimit:10;stroke-width:7px"/><path d="M1168,413.7c41.4,46.33,51.06,117.15,27.64,174.71a181.78,181.78,0,0,1-45.85,65.66c-39.88,36.27-96.27,53.24-149.71,46.2s-103.13-37.63-134.46-81.5A131.21,131.21,0,0,1,842.5,558.5c-2.74-21.76.06-44.73,14.41-61.31,16.06-18.55,43.18-26.69,66.8-20.07s40.72,25.18,44.79,49.38c2,12.14,2.45,27.18,4.63,39.3,4.2,23.24,22.7,43.27,45.54,49.3s48.81-2.27,63.93-20.41c28.15-33.76,15.72-91.56-7.77-124.61a200.31,200.31,0,0,0-97.37-72.8C1029.27,338.55,1120.75,360.85,1168,413.7Z" transform="translate(-588 -239)" style="fill:none;stroke:#023714;stroke-miterlimit:10;stroke-width:7px"/><rect width="768" height="613" style="fill:none"/></svg>